# xmcd
# 
# Track frame offsets:
#     150
#     16852
#     35697
#     53581
#     68601
#     85644
#     101039
#     117823
#     137302
#     152362
#     169582
# 
# Disc length: 2524
# 
# Revision: 4
# Processed by: cddbd v1.5.2PL0 Copyright (c) Steve Scherf et al.
# Submitted via: fre:ac v1.0.17
# 
DISCID=7409da0b
DTITLE=The Birthday Massacre - Pins and Needles
DYEAR=2010
DGENRE=Darkwave
TTITLE0=In the Dark
TTITLE1=Always
TTITLE2=Pale
TTITLE3=Control
TTITLE4=Shallow Grave
TTITLE5=Sideways
TTITLE6=Midnight
TTITLE7=Pins and Needles
TTITLE8=Two Hearts
TTITLE9=Sleep Walking
TTITLE10=Secret
EXTD=
EXTT0=
EXTT1=
EXTT2=
EXTT3=
EXTT4=
EXTT5=
EXTT6=
EXTT7=
EXTT8=
EXTT9=
EXTT10=
PLAYORDER=
